<svg width="750" height="247" viewBox="0 0 750 247" fill="none" xmlns="http://www.w3.org/2000/svg">
<path fill-rule="evenodd" clip-rule="evenodd" d="M153.357 36.4961C163.694 36.4961 172.074 28.5351 172.074 18.7146C172.074 8.8942 163.694 0.933167 153.357 0.933167C143.02 0.933167 134.64 8.8942 134.64 18.7146C134.64 28.5351 143.02 36.4961 153.357 36.4961ZM62.1286 20.4594C69.4577 5.83847 90.3257 5.83844 97.6548 20.4594L157.651 140.147C164.274 153.36 154.668 168.921 139.888 168.921H137.404L79.9366 54.2777L22.469 168.921H19.8956C5.11583 168.921 -4.49067 153.36 2.13247 140.147L62.1286 20.4594Z" fill="#1D1D1B"/>
<path d="M256.814 110.927L253.379 99.6501H236.107L232.672 110.927H221.849L238.57 63.3564H250.851L267.637 110.927H256.814ZM250.981 91.2248C247.805 81.0064 246.012 75.2274 245.602 73.888C245.213 72.5486 244.932 71.49 244.759 70.7123C244.046 73.4776 242.005 80.3151 238.635 91.2248H250.981ZM328.786 63.5508V94.2061C328.786 97.7058 327.997 100.774 326.42 103.409C324.865 106.045 322.607 108.065 319.647 109.469C316.688 110.873 313.188 111.575 309.148 111.575C303.056 111.575 298.325 110.02 294.955 106.909C291.585 103.776 289.9 99.4989 289.9 94.0764V63.5508H299.913V92.5534C299.913 96.2044 300.647 98.8832 302.116 100.59C303.585 102.297 306.016 103.15 309.407 103.15C312.691 103.15 315.068 102.297 316.537 100.59C318.027 98.8616 318.773 96.1612 318.773 92.4886V63.5508H328.786ZM396.286 86.7853C396.286 94.5841 394.061 100.557 389.61 104.705C385.182 108.853 378.776 110.927 370.394 110.927H356.978V63.5508H371.852C379.586 63.5508 385.592 65.5923 389.869 69.6754C394.147 73.7584 396.286 79.4617 396.286 86.7853ZM385.851 87.0445C385.851 76.8693 381.358 71.7817 372.371 71.7817H367.024V102.631H371.334C381.012 102.631 385.851 97.4358 385.851 87.0445ZM422.696 110.927V63.5508H432.741V110.927H422.696ZM479.535 110.927H469.489V71.9113H456.624V63.5508H492.399V71.9113H479.535V110.927Z" fill="#1D1D1B"/>
<path d="M20.4844 236.104H17.8281V225.354H5.79688V236.104H3.14062V213.26H5.79688V222.979H17.8281V213.26H20.4844V236.104ZM38.7294 236.417C36.1981 236.417 34.1981 235.646 32.7294 234.104C31.271 232.562 30.5419 230.422 30.5419 227.682C30.5419 224.922 31.219 222.729 32.5731 221.104C33.9377 219.479 35.7658 218.667 38.0575 218.667C40.2033 218.667 41.9012 219.375 43.1512 220.792C44.4012 222.198 45.0262 224.057 45.0262 226.37V228.01H33.2294C33.2815 230.021 33.7867 231.547 34.745 232.588C35.7137 233.63 37.0731 234.151 38.8231 234.151C40.6669 234.151 42.4898 233.765 44.2919 232.995V235.307C43.3752 235.703 42.5054 235.984 41.6825 236.151C40.87 236.328 39.8856 236.417 38.7294 236.417ZM38.0262 220.838C36.6512 220.838 35.5523 221.286 34.7294 222.182C33.9169 223.078 33.4377 224.318 33.2919 225.901H42.245C42.245 224.265 41.8804 223.015 41.1512 222.151C40.4221 221.276 39.3804 220.838 38.0262 220.838ZM57.1775 236.104H54.5837V211.792H57.1775V236.104ZM75.7663 236.417C74.6517 236.417 73.6308 236.213 72.7038 235.807C71.7871 235.39 71.0163 234.755 70.3913 233.901H70.2038C70.3288 234.901 70.3913 235.849 70.3913 236.745V243.792H67.7975V218.979H69.9069L70.2663 221.323H70.3913C71.0579 220.385 71.834 219.708 72.7194 219.292C73.6048 218.875 74.6204 218.667 75.7663 218.667C78.0371 218.667 79.7871 219.443 81.0163 220.995C82.2558 222.547 82.8756 224.724 82.8756 227.526C82.8756 230.338 82.2454 232.526 80.985 234.088C79.735 235.64 77.9954 236.417 75.7663 236.417ZM75.3913 220.87C73.6413 220.87 72.3756 221.354 71.5944 222.323C70.8131 223.292 70.4121 224.833 70.3913 226.948V227.526C70.3913 229.932 70.7923 231.656 71.5944 232.698C72.3965 233.729 73.6829 234.245 75.4538 234.245C76.9329 234.245 78.0892 233.646 78.9225 232.448C79.7663 231.25 80.1881 229.599 80.1881 227.495C80.1881 225.359 79.7663 223.724 78.9225 222.588C78.0892 221.443 76.9121 220.87 75.3913 220.87ZM103.589 231.432C103.589 233.026 102.996 234.255 101.808 235.12C100.621 235.984 98.954 236.417 96.8081 236.417C94.5373 236.417 92.7665 236.057 91.4956 235.338V232.932C92.3185 233.349 93.1987 233.677 94.1362 233.917C95.0842 234.156 95.9956 234.276 96.8706 234.276C98.2248 234.276 99.2665 234.062 99.9956 233.635C100.725 233.198 101.089 232.536 101.089 231.651C101.089 230.984 100.798 230.417 100.214 229.948C99.6415 229.469 98.5165 228.906 96.8394 228.26C95.2456 227.667 94.1102 227.151 93.4331 226.713C92.7665 226.265 92.2665 225.76 91.9331 225.198C91.6102 224.635 91.4487 223.963 91.4487 223.182C91.4487 221.786 92.0165 220.687 93.1519 219.885C94.2873 219.073 95.8446 218.667 97.8237 218.667C99.6675 218.667 101.47 219.042 103.23 219.792L102.308 221.901C100.589 221.193 99.0321 220.838 97.6362 220.838C96.4071 220.838 95.48 221.031 94.855 221.417C94.23 221.802 93.9175 222.333 93.9175 223.01C93.9175 223.469 94.0321 223.859 94.2612 224.182C94.5008 224.505 94.881 224.812 95.4019 225.104C95.9227 225.396 96.9227 225.818 98.4019 226.37C100.433 227.109 101.803 227.854 102.511 228.604C103.23 229.354 103.589 230.297 103.589 231.432ZM123.658 218.979H126.439L130.189 228.745C131.012 230.974 131.522 232.583 131.72 233.573H131.845C131.98 233.042 132.262 232.135 132.689 230.854C133.126 229.562 134.543 225.604 136.939 218.979H139.72L132.361 238.479C131.631 240.406 130.777 241.771 129.798 242.573C128.829 243.385 127.637 243.792 126.22 243.792C125.428 243.792 124.647 243.703 123.876 243.526V241.448C124.449 241.573 125.09 241.635 125.798 241.635C127.579 241.635 128.85 240.635 129.611 238.635L130.564 236.198L123.658 218.979ZM162.402 227.526C162.402 230.318 161.699 232.5 160.293 234.073C158.887 235.635 156.944 236.417 154.465 236.417C152.934 236.417 151.574 236.057 150.387 235.338C149.199 234.62 148.283 233.588 147.637 232.245C146.991 230.901 146.668 229.328 146.668 227.526C146.668 224.734 147.366 222.562 148.762 221.01C150.158 219.448 152.095 218.667 154.574 218.667C156.97 218.667 158.871 219.463 160.277 221.057C161.694 222.651 162.402 224.807 162.402 227.526ZM149.356 227.526C149.356 229.713 149.793 231.38 150.668 232.526C151.543 233.672 152.83 234.245 154.527 234.245C156.225 234.245 157.512 233.677 158.387 232.542C159.272 231.396 159.715 229.724 159.715 227.526C159.715 225.349 159.272 223.698 158.387 222.573C157.512 221.437 156.215 220.87 154.496 220.87C152.798 220.87 151.517 221.427 150.652 222.542C149.788 223.656 149.356 225.318 149.356 227.526ZM174.522 218.979V230.088C174.522 231.484 174.84 232.526 175.476 233.213C176.111 233.901 177.106 234.245 178.46 234.245C180.252 234.245 181.559 233.755 182.382 232.776C183.215 231.797 183.632 230.198 183.632 227.979V218.979H186.226V236.104H184.085L183.71 233.807H183.569C183.038 234.651 182.299 235.297 181.351 235.745C180.413 236.193 179.34 236.417 178.132 236.417C176.049 236.417 174.486 235.922 173.444 234.932C172.413 233.943 171.897 232.359 171.897 230.182V218.979H174.522ZM215.825 234.276C216.283 234.276 216.726 234.245 217.153 234.182C217.58 234.109 217.919 234.036 218.169 233.963V235.948C217.887 236.083 217.471 236.193 216.919 236.276C216.377 236.37 215.887 236.417 215.45 236.417C212.137 236.417 210.481 234.672 210.481 231.182V220.995H208.028V219.745L210.481 218.667L211.575 215.01H213.075V218.979H218.044V220.995H213.075V231.073C213.075 232.104 213.32 232.896 213.809 233.448C214.299 234 214.971 234.276 215.825 234.276ZM241.507 227.526C241.507 230.318 240.804 232.5 239.398 234.073C237.992 235.635 236.049 236.417 233.57 236.417C232.039 236.417 230.679 236.057 229.492 235.338C228.304 234.62 227.388 233.588 226.742 232.245C226.096 230.901 225.773 229.328 225.773 227.526C225.773 224.734 226.471 222.562 227.867 221.01C229.263 219.448 231.2 218.667 233.679 218.667C236.075 218.667 237.976 219.463 239.382 221.057C240.799 222.651 241.507 224.807 241.507 227.526ZM228.461 227.526C228.461 229.713 228.898 231.38 229.773 232.526C230.648 233.672 231.935 234.245 233.632 234.245C235.33 234.245 236.617 233.677 237.492 232.542C238.377 231.396 238.82 229.724 238.82 227.526C238.82 225.349 238.377 223.698 237.492 222.573C236.617 221.437 235.32 220.87 233.601 220.87C231.903 220.87 230.622 221.427 229.757 222.542C228.893 223.656 228.461 225.318 228.461 227.526ZM263.185 236.104L268.013 213.26H270.794L278.029 232.385H278.107C278.18 231.864 278.274 231.26 278.388 230.573C278.503 229.875 278.633 229.151 278.779 228.401C278.925 227.64 279.07 226.917 279.216 226.229L281.997 213.26H284.497L279.669 236.104H276.888L269.607 216.932H269.529C269.477 217.286 269.409 217.708 269.326 218.198C269.253 218.687 269.164 219.219 269.06 219.792C268.966 220.364 268.862 220.953 268.747 221.557C268.633 222.151 268.513 222.729 268.388 223.292L265.685 236.104H263.185ZM294.477 243.792C292.466 243.792 290.894 243.406 289.758 242.635C288.623 241.875 288.055 240.802 288.055 239.417C288.055 238.302 288.435 237.333 289.196 236.51C289.946 235.698 291.154 235.015 292.821 234.463C292.425 234.255 292.123 233.995 291.914 233.682C291.716 233.359 291.617 232.989 291.617 232.573C291.617 231.864 291.878 231.255 292.399 230.745C292.92 230.224 293.649 229.745 294.586 229.307C293.92 228.963 293.383 228.458 292.977 227.792C292.571 227.125 292.367 226.359 292.367 225.495C292.378 224.463 292.555 223.521 292.899 222.667C293.242 221.812 293.727 221.083 294.352 220.479C294.935 219.917 295.617 219.479 296.399 219.167C297.19 218.854 298.05 218.698 298.977 218.698C299.373 218.698 299.769 218.724 300.164 218.776C300.56 218.828 300.951 218.906 301.336 219.01H307.117L306.742 220.588L303.352 220.932C303.591 221.255 303.769 221.635 303.883 222.073C304.008 222.51 304.065 222.995 304.055 223.526C304.055 224.547 303.883 225.469 303.539 226.292C303.196 227.114 302.706 227.812 302.071 228.385C301.498 228.896 300.815 229.292 300.024 229.573C299.242 229.844 298.367 229.984 297.399 229.995C297.117 229.995 296.867 229.984 296.649 229.963C296.43 229.943 296.242 229.911 296.086 229.87C295.326 230.14 294.763 230.458 294.399 230.823C294.034 231.187 293.852 231.573 293.852 231.979C293.852 232.271 293.94 232.505 294.117 232.682C294.284 232.838 294.513 232.958 294.805 233.042C295.107 233.114 295.477 233.177 295.914 233.229L297.758 233.432C299.008 233.578 300.029 233.828 300.821 234.182C301.612 234.526 302.196 234.995 302.571 235.588C302.946 236.182 303.133 236.917 303.133 237.792C303.133 238.896 302.878 239.849 302.367 240.651C301.857 241.463 301.123 242.125 300.164 242.635C299.435 243.01 298.591 243.297 297.633 243.495C296.685 243.693 295.633 243.792 294.477 243.792ZM294.586 241.901C295.534 241.901 296.378 241.818 297.117 241.651C297.867 241.484 298.503 241.245 299.024 240.932C299.586 240.588 300.013 240.172 300.305 239.682C300.607 239.193 300.758 238.63 300.758 237.995C300.758 237.713 300.711 237.458 300.617 237.229C300.534 237 300.399 236.797 300.211 236.62C299.92 236.338 299.503 236.109 298.961 235.932C298.42 235.755 297.732 235.63 296.899 235.557L294.399 235.307C293.524 235.495 292.789 235.771 292.196 236.135C291.612 236.51 291.17 236.953 290.867 237.463C290.565 237.974 290.414 238.547 290.414 239.182C290.414 240.036 290.769 240.703 291.477 241.182C292.185 241.661 293.222 241.901 294.586 241.901ZM297.508 228.276C298.404 228.276 299.159 228.052 299.774 227.604C300.399 227.146 300.878 226.542 301.211 225.792C301.545 225.031 301.711 224.203 301.711 223.307C301.711 222.859 301.649 222.463 301.524 222.12C301.409 221.765 301.232 221.474 300.992 221.245C300.763 221.005 300.472 220.823 300.117 220.698C299.774 220.573 299.378 220.51 298.93 220.51C298.274 220.51 297.685 220.64 297.164 220.901C296.644 221.151 296.201 221.5 295.836 221.948C295.482 222.396 295.206 222.917 295.008 223.51C294.821 224.104 294.727 224.739 294.727 225.417C294.727 225.854 294.784 226.245 294.899 226.588C295.013 226.932 295.18 227.224 295.399 227.463C295.878 228.005 296.581 228.276 297.508 228.276ZM317.456 236.417C316.529 236.417 315.717 236.193 315.019 235.745C314.321 235.297 313.779 234.635 313.394 233.76C313.008 232.885 312.816 231.818 312.816 230.557C312.816 229.297 312.946 228.083 313.206 226.917C313.477 225.75 313.857 224.667 314.347 223.667C314.836 222.667 315.425 221.792 316.112 221.042C316.81 220.292 317.592 219.708 318.456 219.292C319.321 218.875 320.253 218.667 321.253 218.667C322.024 218.667 322.691 218.812 323.253 219.104C323.826 219.396 324.3 219.781 324.675 220.26C325.06 220.729 325.362 221.229 325.581 221.76H325.737L326.737 218.979H328.722L325.097 236.104H323.019L323.487 232.792H323.362C322.894 233.417 322.357 234.005 321.753 234.557C321.149 235.109 320.487 235.557 319.769 235.901C319.05 236.245 318.279 236.417 317.456 236.417ZM318.3 234.26C319.102 234.26 319.894 233.969 320.675 233.385C321.467 232.792 322.175 231.995 322.8 230.995C323.435 229.984 323.92 228.849 324.253 227.588C324.42 226.974 324.529 226.411 324.581 225.901C324.644 225.38 324.675 224.896 324.675 224.448C324.675 223.375 324.389 222.51 323.816 221.854C323.253 221.187 322.482 220.854 321.503 220.854C320.805 220.854 320.149 221.031 319.534 221.385C318.92 221.729 318.362 222.213 317.862 222.838C317.373 223.453 316.951 224.172 316.597 224.995C316.243 225.807 315.967 226.693 315.769 227.651C315.581 228.609 315.487 229.594 315.487 230.604C315.487 231.802 315.732 232.713 316.222 233.338C316.711 233.953 317.404 234.26 318.3 234.26ZM340.264 236.417C339.128 236.417 338.18 236.146 337.42 235.604C336.67 235.052 336.295 234.109 336.295 232.776C336.295 232.453 336.316 232.104 336.357 231.729C336.399 231.344 336.467 230.948 336.561 230.542L338.576 220.963H335.936L336.186 219.76L339.029 218.667L340.904 215.042H342.451L341.592 218.979H345.998L345.592 220.963H341.201L339.17 230.573C339.097 230.864 339.029 231.177 338.967 231.51C338.915 231.844 338.889 232.161 338.889 232.463C338.889 232.984 339.024 233.422 339.295 233.776C339.566 234.12 340.019 234.292 340.654 234.292C341.05 234.292 341.425 234.255 341.779 234.182C342.144 234.109 342.529 234.005 342.936 233.87V235.87C342.675 235.995 342.279 236.114 341.748 236.229C341.227 236.354 340.732 236.417 340.264 236.417ZM356.212 236.417C355.347 236.417 354.592 236.255 353.946 235.932C353.3 235.609 352.8 235.135 352.446 234.51C352.103 233.875 351.931 233.099 351.931 232.182C351.931 231.724 351.962 231.281 352.024 230.854C352.097 230.417 352.175 229.963 352.259 229.495L354.524 218.979H357.149L354.821 229.792C354.738 230.239 354.67 230.64 354.618 230.995C354.576 231.338 354.556 231.646 354.556 231.917C354.556 232.656 354.743 233.234 355.118 233.651C355.504 234.057 356.113 234.26 356.946 234.26C357.728 234.26 358.545 233.995 359.399 233.463C360.264 232.932 361.061 232.099 361.79 230.963C362.53 229.818 363.092 228.333 363.478 226.51L365.071 218.979H367.634L364.009 236.104H361.868L362.29 232.792H362.149C361.754 233.333 361.274 233.885 360.712 234.448C360.149 235 359.498 235.469 358.759 235.854C358.019 236.229 357.17 236.417 356.212 236.417ZM374.629 236.104L378.269 218.979H380.394L379.988 222.292H380.144C380.582 221.698 381.051 221.125 381.551 220.573C382.051 220.01 382.618 219.552 383.254 219.198C383.9 218.844 384.639 218.667 385.473 218.667C385.785 218.667 386.103 218.687 386.426 218.729C386.749 218.76 387.051 218.818 387.332 218.901L386.769 221.229C386.488 221.167 386.212 221.12 385.941 221.088C385.681 221.057 385.41 221.042 385.129 221.042C384.337 221.042 383.603 221.25 382.926 221.667C382.249 222.073 381.639 222.62 381.098 223.307C380.566 223.995 380.113 224.76 379.738 225.604C379.374 226.448 379.098 227.307 378.91 228.182L377.238 236.104H374.629ZM406.275 236.104L411.103 213.26H416.431C419.202 213.26 421.369 214.01 422.931 215.51C424.504 217 425.291 219.292 425.291 222.385C425.291 223.948 425.103 225.422 424.728 226.807C424.353 228.193 423.796 229.453 423.056 230.588C422.317 231.724 421.405 232.703 420.322 233.526C419.239 234.349 417.983 234.984 416.556 235.432C415.129 235.88 413.541 236.104 411.791 236.104H406.275ZM409.384 233.823H411.947C413.322 233.823 414.567 233.635 415.681 233.26C416.796 232.875 417.775 232.333 418.619 231.635C419.473 230.937 420.186 230.114 420.759 229.167C421.343 228.208 421.78 227.156 422.072 226.01C422.364 224.854 422.509 223.635 422.509 222.354C422.509 219.958 421.926 218.224 420.759 217.151C419.603 216.068 418.046 215.526 416.087 215.526H413.275L409.384 233.823ZM437.473 236.417C436.609 236.417 435.853 236.255 435.207 235.932C434.562 235.609 434.062 235.135 433.707 234.51C433.364 233.875 433.192 233.099 433.192 232.182C433.192 231.724 433.223 231.281 433.286 230.854C433.359 230.417 433.437 229.963 433.52 229.495L435.786 218.979H438.411L436.082 229.792C435.999 230.239 435.931 230.64 435.879 230.995C435.838 231.338 435.817 231.646 435.817 231.917C435.817 232.656 436.004 233.234 436.379 233.651C436.765 234.057 437.374 234.26 438.207 234.26C438.989 234.26 439.806 233.995 440.661 233.463C441.525 232.932 442.322 232.099 443.051 230.963C443.791 229.818 444.353 228.333 444.739 226.51L446.332 218.979H448.895L445.27 236.104H443.129L443.551 232.792H443.411C443.015 233.333 442.536 233.885 441.973 234.448C441.411 235 440.76 235.469 440.02 235.854C439.28 236.229 438.431 236.417 437.473 236.417ZM455.89 236.104L459.531 218.979H462.14L458.499 236.104H455.89ZM461.718 215.979C461.301 215.979 460.952 215.859 460.671 215.62C460.4 215.37 460.265 215.021 460.265 214.573C460.265 214.229 460.333 213.906 460.468 213.604C460.614 213.302 460.817 213.062 461.077 212.885C461.348 212.698 461.676 212.604 462.062 212.604C462.52 212.604 462.864 212.724 463.093 212.963C463.322 213.203 463.437 213.536 463.437 213.963C463.437 214.578 463.26 215.068 462.906 215.432C462.551 215.797 462.156 215.979 461.718 215.979ZM473.979 236.417C472.843 236.417 471.895 236.146 471.135 235.604C470.385 235.052 470.01 234.109 470.01 232.776C470.01 232.453 470.031 232.104 470.073 231.729C470.114 231.344 470.182 230.948 470.276 230.542L472.291 220.963H469.651L469.901 219.76L472.744 218.667L474.619 215.042H476.166L475.307 218.979H479.713L479.307 220.963H474.916L472.885 230.573C472.812 230.864 472.744 231.177 472.682 231.51C472.63 231.844 472.604 232.161 472.604 232.463C472.604 232.984 472.739 233.422 473.01 233.776C473.281 234.12 473.734 234.292 474.369 234.292C474.765 234.292 475.14 234.255 475.494 234.182C475.859 234.109 476.244 234.005 476.651 233.87V235.87C476.39 235.995 475.994 236.114 475.463 236.229C474.942 236.354 474.448 236.417 473.979 236.417Z" fill="#32322F"/>
</svg>
